<svg xmlns="http://www.w3.org/2000/svg" width="900" height="396" viewBox="0 0 900 396" role="img" aria-labelledby="t d">
  <title id="t">Recent GitHub activity for Thakay</title>
  <desc id="d">580 contributions in the last 90 days across 61 active days. By repository: Private work 565, sako 5, archify 2, aiterm 1. Latest release: sako v0.5.0 on Sep 26.</desc>
  <defs>
    <linearGradient id="bg" x1="0" y1="0" x2="1" y2="1"><stop offset="0" stop-color="#0b0f17"/><stop offset="1" stop-color="#101829"/></linearGradient>
    <radialGradient id="glow" cx="0.9" cy="0.1" r="0.6"><stop offset="0" stop-color="#7c3aed" stop-opacity="0.28"/><stop offset="1" stop-color="#7c3aed" stop-opacity="0"/></radialGradient>
    <linearGradient id="bar" x1="0" y1="1" x2="0" y2="0"><stop offset="0" stop-color="#a78bfa"/><stop offset="1" stop-color="#22d3ee"/></linearGradient>
    <linearGradient id="accentH" gradientUnits="userSpaceOnUse" x1="568" y1="0" x2="868" y2="0"><stop offset="0" stop-color="#a78bfa"/><stop offset="1" stop-color="#22d3ee"/></linearGradient>
    <clipPath id="card"><rect x="0.5" y="0.5" width="899" height="395" rx="14"/></clipPath>
  </defs>
  <g clip-path="url(#card)">
    <rect width="900" height="396" fill="url(#bg)"/>
    <rect width="900" height="396" fill="url(#glow)"/>
  </g>
  <rect x="0.5" y="0.5" width="899" height="395" rx="14" fill="none" stroke="#30363d"/>
  <g font-family="-apple-system, BlinkMacSystemFont, 'Segoe UI', 'Noto Sans', Helvetica, Arial, sans-serif">
    <text x="32" y="52" font-size="20" font-weight="700" fill="#e6edf3">Recent activity</text>
    <text x="868" y="52" font-size="13" fill="#9198a1" text-anchor="end">Last 90 days · updated Sep 28, 2026</text>
    <text x="32" y="104" font-size="26" font-weight="700" fill="#e6edf3">580</text><text x="32" y="126" font-size="13" fill="#9198a1">contributions</text><text x="202" y="104" font-size="26" font-weight="700" fill="#e6edf3">61</text><text x="202" y="126" font-size="13" fill="#9198a1">active days</text><text x="372" y="104" font-size="26" font-weight="700" fill="#e6edf3">43</text><text x="372" y="126" font-size="13" fill="#9198a1">on the busiest day</text><text x="568" y="104" font-size="26" font-weight="700" fill="#e6edf3">v0.5.0</text><text x="568" y="126" font-size="13" fill="#9198a1">latest sako release, Sep 26</text>
    <rect x="32.0" y="298.0" width="3.9" height="2" rx="1" fill="#30363d"/><rect x="37.4" y="298.0" width="3.9" height="2" rx="1" fill="#30363d"/><rect x="42.8" y="298.0" width="3.9" height="2" rx="1" fill="#30363d"/><rect x="48.3" y="298.0" width="3.9" height="2" rx="1" fill="#30363d"/><rect x="53.7" y="298.0" width="3.9" height="2" rx="1" fill="#30363d"/><rect x="59.1" y="298.0" width="3.9" height="2" rx="1" fill="#30363d"/><rect x="64.5" y="298.0" width="3.9" height="2" rx="1" fill="#30363d"/><rect x="70.0" y="298.0" width="3.9" height="2" rx="1" fill="#30363d"/><rect x="75.4" y="293.0" width="3.9" height="7.0" rx="1.5" fill="url(#bar)"><title>Jul 09: 2</title></rect><rect x="80.8" y="298.0" width="3.9" height="2" rx="1" fill="#30363d"/><rect x="86.2" y="298.0" width="3.9" height="2" rx="1" fill="#30363d"/><rect x="91.6" y="298.0" width="3.9" height="2" rx="1" fill="#30363d"/><rect x="97.1" y="298.0" width="3.9" height="2" rx="1" fill="#30363d"/><rect x="102.5" y="275.6" width="3.9" height="24.4" rx="1.5" fill="url(#bar)"><title>Jul 14: 7</title></rect><rect x="107.9" y="296.5" width="3.9" height="3.5" rx="1.5" fill="url(#bar)"><title>Jul 15: 1</title></rect><rect x="113.3" y="279.1" width="3.9" height="20.9" rx="1.5" fill="url(#bar)"><title>Jul 16: 6</title></rect><rect x="118.8" y="282.6" width="3.9" height="17.4" rx="1.5" fill="url(#bar)"><title>Jul 17: 5</title></rect><rect x="124.2" y="279.1" width="3.9" height="20.9" rx="1.5" fill="url(#bar)"><title>Jul 18: 6</title></rect><rect x="129.6" y="298.0" width="3.9" height="2" rx="1" fill="#30363d"/><rect x="135.0" y="268.6" width="3.9" height="31.4" rx="1.5" fill="url(#bar)"><title>Jul 20: 9</title></rect><rect x="140.4" y="293.0" width="3.9" height="7.0" rx="1.5" fill="url(#bar)"><title>Jul 21: 2</title></rect><rect x="145.9" y="298.0" width="3.9" height="2" rx="1" fill="#30363d"/><rect x="151.3" y="293.0" width="3.9" height="7.0" rx="1.5" fill="url(#bar)"><title>Jul 23: 2</title></rect><rect x="156.7" y="298.0" width="3.9" height="2" rx="1" fill="#30363d"/><rect x="162.1" y="298.0" width="3.9" height="2" rx="1" fill="#30363d"/><rect x="167.6" y="212.8" width="3.9" height="87.2" rx="1.5" fill="url(#bar)"><title>Jul 26: 25</title></rect><rect x="173.0" y="275.6" width="3.9" height="24.4" rx="1.5" fill="url(#bar)"><title>Jul 27: 7</title></rect><rect x="178.4" y="289.5" width="3.9" height="10.5" rx="1.5" fill="url(#bar)"><title>Jul 28: 3</title></rect><rect x="183.8" y="188.4" width="3.9" height="111.6" rx="1.5" fill="url(#bar)"><title>Jul 29: 32</title></rect><rect x="189.2" y="212.8" width="3.9" height="87.2" rx="1.5" fill="url(#bar)"><title>Jul 30: 25</title></rect><rect x="194.7" y="296.5" width="3.9" height="3.5" rx="1.5" fill="url(#bar)"><title>Jul 31: 1</title></rect><rect x="200.1" y="275.6" width="3.9" height="24.4" rx="1.5" fill="url(#bar)"><title>Aug 01: 7</title></rect><rect x="205.5" y="289.5" width="3.9" height="10.5" rx="1.5" fill="url(#bar)"><title>Aug 02: 3</title></rect><rect x="210.9" y="254.7" width="3.9" height="45.3" rx="1.5" fill="url(#bar)"><title>Aug 03: 13</title></rect><rect x="216.4" y="286.0" width="3.9" height="14.0" rx="1.5" fill="url(#bar)"><title>Aug 04: 4</title></rect><rect x="221.8" y="275.6" width="3.9" height="24.4" rx="1.5" fill="url(#bar)"><title>Aug 05: 7</title></rect><rect x="227.2" y="298.0" width="3.9" height="2" rx="1" fill="#30363d"/><rect x="232.6" y="293.0" width="3.9" height="7.0" rx="1.5" fill="url(#bar)"><title>Aug 07: 2</title></rect><rect x="238.0" y="254.7" width="3.9" height="45.3" rx="1.5" fill="url(#bar)"><title>Aug 08: 13</title></rect><rect x="243.5" y="275.6" width="3.9" height="24.4" rx="1.5" fill="url(#bar)"><title>Aug 09: 7</title></rect><rect x="248.9" y="296.5" width="3.9" height="3.5" rx="1.5" fill="url(#bar)"><title>Aug 10: 1</title></rect><rect x="254.3" y="237.2" width="3.9" height="62.8" rx="1.5" fill="url(#bar)"><title>Aug 11: 18</title></rect><rect x="259.7" y="298.0" width="3.9" height="2" rx="1" fill="#30363d"/><rect x="265.2" y="289.5" width="3.9" height="10.5" rx="1.5" fill="url(#bar)"><title>Aug 13: 3</title></rect><rect x="270.6" y="298.0" width="3.9" height="2" rx="1" fill="#30363d"/><rect x="276.0" y="293.0" width="3.9" height="7.0" rx="1.5" fill="url(#bar)"><title>Aug 15: 2</title></rect><rect x="281.4" y="293.0" width="3.9" height="7.0" rx="1.5" fill="url(#bar)"><title>Aug 16: 2</title></rect><rect x="286.8" y="275.6" width="3.9" height="24.4" rx="1.5" fill="url(#bar)"><title>Aug 17: 7</title></rect><rect x="292.3" y="298.0" width="3.9" height="2" rx="1" fill="#30363d"/><rect x="297.7" y="282.6" width="3.9" height="17.4" rx="1.5" fill="url(#bar)"><title>Aug 19: 5</title></rect><rect x="303.1" y="286.0" width="3.9" height="14.0" rx="1.5" fill="url(#bar)"><title>Aug 20: 4</title></rect><rect x="308.5" y="268.6" width="3.9" height="31.4" rx="1.5" fill="url(#bar)"><title>Aug 21: 9</title></rect><rect x="314.0" y="279.1" width="3.9" height="20.9" rx="1.5" fill="url(#bar)"><title>Aug 22: 6</title></rect><rect x="319.4" y="298.0" width="3.9" height="2" rx="1" fill="#30363d"/><rect x="324.8" y="150.0" width="3.9" height="150.0" rx="1.5" fill="url(#bar)"><title>Aug 24: 43</title></rect><rect x="330.2" y="233.7" width="3.9" height="66.3" rx="1.5" fill="url(#bar)"><title>Aug 25: 19</title></rect><rect x="335.6" y="268.6" width="3.9" height="31.4" rx="1.5" fill="url(#bar)"><title>Aug 26: 9</title></rect><rect x="341.1" y="237.2" width="3.9" height="62.8" rx="1.5" fill="url(#bar)"><title>Aug 27: 18</title></rect><rect x="346.5" y="181.4" width="3.9" height="118.6" rx="1.5" fill="url(#bar)"><title>Aug 28: 34</title></rect><rect x="351.9" y="164.0" width="3.9" height="136.0" rx="1.5" fill="url(#bar)"><title>Aug 29: 39</title></rect><rect x="357.3" y="212.8" width="3.9" height="87.2" rx="1.5" fill="url(#bar)"><title>Aug 30: 25</title></rect><rect x="362.8" y="289.5" width="3.9" height="10.5" rx="1.5" fill="url(#bar)"><title>Aug 31: 3</title></rect><rect x="368.2" y="261.6" width="3.9" height="38.4" rx="1.5" fill="url(#bar)"><title>Sep 01: 11</title></rect><rect x="373.6" y="296.5" width="3.9" height="3.5" rx="1.5" fill="url(#bar)"><title>Sep 02: 1</title></rect><rect x="379.0" y="268.6" width="3.9" height="31.4" rx="1.5" fill="url(#bar)"><title>Sep 03: 9</title></rect><rect x="384.4" y="268.6" width="3.9" height="31.4" rx="1.5" fill="url(#bar)"><title>Sep 04: 9</title></rect><rect x="389.9" y="237.2" width="3.9" height="62.8" rx="1.5" fill="url(#bar)"><title>Sep 05: 18</title></rect><rect x="395.3" y="296.5" width="3.9" height="3.5" rx="1.5" fill="url(#bar)"><title>Sep 06: 1</title></rect><rect x="400.7" y="296.5" width="3.9" height="3.5" rx="1.5" fill="url(#bar)"><title>Sep 07: 1</title></rect><rect x="406.1" y="286.0" width="3.9" height="14.0" rx="1.5" fill="url(#bar)"><title>Sep 08: 4</title></rect><rect x="411.6" y="298.0" width="3.9" height="2" rx="1" fill="#30363d"/><rect x="417.0" y="293.0" width="3.9" height="7.0" rx="1.5" fill="url(#bar)"><title>Sep 10: 2</title></rect><rect x="422.4" y="298.0" width="3.9" height="2" rx="1" fill="#30363d"/><rect x="427.8" y="286.0" width="3.9" height="14.0" rx="1.5" fill="url(#bar)"><title>Sep 12: 4</title></rect><rect x="433.2" y="191.9" width="3.9" height="108.1" rx="1.5" fill="url(#bar)"><title>Sep 13: 31</title></rect><rect x="438.7" y="298.0" width="3.9" height="2" rx="1" fill="#30363d"/><rect x="444.1" y="279.1" width="3.9" height="20.9" rx="1.5" fill="url(#bar)"><title>Sep 15: 6</title></rect><rect x="449.5" y="286.0" width="3.9" height="14.0" rx="1.5" fill="url(#bar)"><title>Sep 16: 4</title></rect><rect x="454.9" y="244.2" width="3.9" height="55.8" rx="1.5" fill="url(#bar)"><title>Sep 17: 16</title></rect><rect x="460.4" y="298.0" width="3.9" height="2" rx="1" fill="#30363d"/><rect x="465.8" y="298.0" width="3.9" height="2" rx="1" fill="#30363d"/><rect x="471.2" y="289.5" width="3.9" height="10.5" rx="1.5" fill="url(#bar)"><title>Sep 20: 3</title></rect><rect x="476.6" y="298.0" width="3.9" height="2" rx="1" fill="#30363d"/><rect x="482.0" y="298.0" width="3.9" height="2" rx="1" fill="#30363d"/><rect x="487.5" y="293.0" width="3.9" height="7.0" rx="1.5" fill="url(#bar)"><title>Sep 23: 2</title></rect><rect x="492.9" y="298.0" width="3.9" height="2" rx="1" fill="#30363d"/><rect x="498.3" y="272.1" width="3.9" height="27.9" rx="1.5" fill="url(#bar)"><title>Sep 25: 8</title></rect><rect x="503.7" y="261.6" width="3.9" height="38.4" rx="1.5" fill="url(#bar)"><title>Sep 26: 11</title></rect><rect x="509.2" y="293.0" width="3.9" height="7.0" rx="1.5" fill="url(#bar)"><title>Sep 27: 2</title></rect><rect x="514.6" y="296.5" width="3.9" height="3.5" rx="1.5" fill="url(#bar)"><title>Sep 28: 1</title></rect>
    <text x="32.0" y="324" font-size="13" fill="#9198a1">Jul</text><text x="200.1" y="324" font-size="13" fill="#9198a1">Aug</text><text x="368.2" y="324" font-size="13" fill="#9198a1">Sep</text>
    <text x="568" y="164" font-size="14" font-weight="700" fill="#e6edf3">Where it went</text>
    <text x="568" y="196" font-size="14" fill="#e6edf3">Private work</text><text x="868" y="196" font-size="14" fill="#9198a1" text-anchor="end">565 · 99%</text><rect x="568" y="205" width="300" height="8" rx="4" fill="#21262d"/><rect x="568" y="205" width="295.8" height="8" rx="4" fill="url(#accentH)"/><text x="568" y="234" font-size="14" fill="#e6edf3">sako</text><text x="868" y="234" font-size="14" fill="#9198a1" text-anchor="end">5 · &lt;1%</text><rect x="568" y="243" width="300" height="8" rx="4" fill="#21262d"/><rect x="568" y="243" width="4.0" height="8" rx="4" fill="url(#accentH)"/><text x="568" y="272" font-size="14" fill="#e6edf3">archify</text><text x="868" y="272" font-size="14" fill="#9198a1" text-anchor="end">2 · &lt;1%</text><rect x="568" y="281" width="300" height="8" rx="4" fill="#21262d"/><rect x="568" y="281" width="4.0" height="8" rx="4" fill="url(#accentH)"/><text x="568" y="310" font-size="14" fill="#e6edf3">aiterm</text><text x="868" y="310" font-size="14" fill="#9198a1" text-anchor="end">1 · &lt;1%</text><rect x="568" y="319" width="300" height="8" rx="4" fill="#21262d"/><rect x="568" y="319" width="4.0" height="8" rx="4" fill="url(#accentH)"/>
    <text x="32" y="374" font-size="12" fill="#9198a1">Daily contributions, including private ones. Generated daily by GitHub Actions.</text>
  </g>
</svg>
